<?xml version="1.0" encoding="UTF-8" standalone="no"?>
<!-- Created with Inkscape (http://www.inkscape.org/) -->
<svg xmlns:inkscape="http://www.inkscape.org/namespaces/inkscape" xmlns:sodipodi="http://sodipodi.sourceforge.net/DTD/sodipodi-0.dtd" xmlns="http://www.w3.org/2000/svg" xmlns:svg="http://www.w3.org/2000/svg" width="297mm" height="210mm" viewBox="0 0 2970 2100" version="1.1" id="svg1" xml:space="preserve" inkscape:version="1.4 (e7c3feb100, 2024-10-09)" sodipodi:docname="zsem_p_minus_1.svg"><sodipodi:namedview id="namedview1" pagecolor="#1a1a1a" bordercolor="#999999" borderopacity="1" inkscape:showpageshadow="2" inkscape:pageopacity="0" inkscape:pagecheckerboard="0" inkscape:deskcolor="#d1d1d1" inkscape:document-units="mm" showgrid="true" inkscape:zoom="5.6568545" inkscape:cx="704.36671" inkscape:cy="581.41853" inkscape:window-width="2107" inkscape:window-height="1211" inkscape:window-x="850" inkscape:window-y="119" inkscape:window-maximized="0" inkscape:current-layer="layer5"><inkscape:grid id="grid5" units="mm" originx="0" originy="0" spacingx="0.2" spacingy="0.20000001" empcolor="#0099e5" empopacity="0.30196078" color="#0099e5" opacity="0.14901961" empspacing="10" enabled="true" visible="true"/></sodipodi:namedview><defs id="defs1"><inkscape:path-effect effect="fillet_chamfer" id="path-effect259" is_visible="true" lpeversion="1" nodesatellites_param="F,0,0,1,0,0,0,1 @ F,0,0,1,0,0,0,1 @ F,0,0,1,0,3.9999794,0,1 @ F,0,0,1,0,4.0000152,0,1" radius="0" unit="px" method="auto" mode="F" chamfer_steps="1" flexible="false" use_knot_distance="true" apply_no_radius="true" apply_with_radius="true" hide_knots="false"/><inkscape:path-effect effect="fillet_chamfer" id="path-effect258" is_visible="true" lpeversion="1" nodesatellites_param="F,0,0,1,0,4.000022,0,1 @ F,0,0,1,0,4.0000152,0,1 @ F,0,0,1,0,3.999985,0,1 @ F,0,0,1,0,3.999985,0,1" radius="0" unit="px" method="auto" mode="F" chamfer_steps="1" flexible="false" use_knot_distance="true" apply_no_radius="true" apply_with_radius="true" hide_knots="false"/><inkscape:path-effect effect="fillet_chamfer" id="path-effect257" is_visible="true" lpeversion="1" nodesatellites_param="F,0,0,1,0,4.0000219,0,1 @ F,0,0,1,0,4.0000173,0,1 @ F,0,0,1,0,4.0000708,0,1 @ F,0,0,1,0,3.9999828,0,1" radius="0" unit="px" method="auto" mode="F" chamfer_steps="1" flexible="false" use_knot_distance="true" apply_no_radius="true" apply_with_radius="true" hide_knots="false"/><inkscape:path-effect effect="fillet_chamfer" id="path-effect256" is_visible="true" lpeversion="1" nodesatellites_param="F,0,0,1,0,3.9999794,0,1 @ F,0,0,1,0,3.9999828,0,1 @ F,0,0,1,0,0,0,1 @ F,0,0,1,0,0,0,1" radius="0" unit="px" method="auto" mode="F" chamfer_steps="1" flexible="false" use_knot_distance="true" apply_no_radius="true" apply_with_radius="true" hide_knots="false"/><inkscape:path-effect effect="fillet_chamfer" id="path-effect255" is_visible="true" lpeversion="1" nodesatellites_param="F,0,0,1,0,0,0,1 @ F,0,0,1,0,7.1494472,0,1 @ F,0,0,1,0,0,0,1 @ F,0,0,1,0,0,0,1 @ F,0,0,1,0,0,0,1 @ F,0,0,1,0,0,0,1 @ F,0,0,1,0,0,0,1 @ F,0,0,1,0,0,0,1 @ F,0,0,1,0,7.1494472,0,1 @ F,0,0,1,0,0,0,1 @ F,0,0,1,0,0,0,1 @ F,0,0,1,0,4.0000214,0,1 @ F,0,0,1,0,0,0,1 @ F,0,0,1,0,0,0,1 @ F,0,0,1,0,0,0,1 @ F,0,0,1,0,0,0,1 @ F,0,0,1,0,0,0,1 @ F,0,0,1,0,0,0,1 @ F,0,0,1,0,5.6336224,0,1 @ F,0,0,1,0,0,0,1" radius="0" unit="px" method="auto" mode="F" chamfer_steps="1" flexible="false" use_knot_distance="true" apply_no_radius="true" apply_with_radius="true" hide_knots="false"/><inkscape:path-effect effect="fillet_chamfer" id="path-effect205" is_visible="true" lpeversion="1" nodesatellites_param="F,0,0,1,0,6.000002,0,1 @ F,0,1,1,0,6.000002,0,1 @ F,0,0,1,0,0,0,1 @ F,0,0,1,0,0,0,1" radius="0" unit="px" method="auto" mode="F" chamfer_steps="1" flexible="false" use_knot_distance="true" apply_no_radius="true" apply_with_radius="true" hide_knots="false"/><inkscape:path-effect effect="fillet_chamfer" id="path-effect204" is_visible="true" lpeversion="1" nodesatellites_param="F,0,0,1,0,8.8751989,0,1 @ F,0,0,1,0,21.999988,0,1 @ F,0,0,1,0,7.9999903,0,1 @ F,0,0,1,0,8.0000123,0,1 @ F,0,0,1,0,15.617386,0,1 @ F,0,0,1,0,6.3185869,0,1" radius="0" unit="px" method="auto" mode="F" chamfer_steps="1" flexible="false" use_knot_distance="true" apply_no_radius="true" apply_with_radius="true" hide_knots="false"/><inkscape:path-effect effect="fillet_chamfer" id="path-effect199" is_visible="true" lpeversion="1" nodesatellites_param="F,0,0,1,0,0,0,1 @ F,0,0,1,0,0,0,1 @ F,0,0,1,0,0,0,1 @ F,0,0,1,0,0,0,1 @ F,0,0,1,0,0,0,1 @ F,0,0,1,0,11.999989,0,1 @ F,0,0,1,0,13.999971,0,1 @ F,0,0,1,0,16.00002,0,1 @ F,0,0,1,0,35.999988,0,1 @ F,0,0,1,0,16.970532,0,1 @ F,0,0,1,0,0,0,1 @ F,0,0,1,0,0,0,1 @ F,0,0,1,0,9.9999996,0,1 @ F,0,0,1,0,0,0,1 @ F,0,0,1,0,52,0,1 @ F,0,0,1,0,0,0,1" radius="0" unit="px" method="auto" mode="F" chamfer_steps="1" flexible="false" use_knot_distance="true" apply_no_radius="true" apply_with_radius="true" hide_knots="false"/></defs><g inkscape:groupmode="layer" id="layer3" inkscape:label="out" style="display:inline"><path style="fill:#1a1a1a;fill-opacity:1;stroke-width:1;stroke-linecap:square" d="M 0,0 H 2970 V 2100.0001 H 0 Z" id="path40"/></g><g inkscape:groupmode="layer" id="layer2" inkscape:label="bg" style="display:inline"><path style="display:inline;fill:#d9d9d9;fill-opacity:1;stroke-width:1;stroke-linecap:square" d="M 1672,1520 H 355.99999 V 1266 H 1244 v 38 h 162 v -172 h 1249.9999 v 318 H 1672 Z" id="path118"/><path style="display:inline;fill:#d9d9d9;fill-opacity:1;stroke-width:1;stroke-linecap:square" d="m 1356,1520 h 46 v 66 h -46 z" id="path39"/></g><g inkscape:label="Warstwa 1" inkscape:groupmode="layer" id="layer1" style="display:inline"><path style="fill:#000000;stroke-width:0.1;stroke-linecap:square" d="M 355.99998,1520.0001 H 1364 v -12 l -996,-4 h -12 z" id="path5" sodipodi:nodetypes="cccccc"/><path style="fill:#000000;stroke-width:0.1;stroke-linecap:square" d="M 355.99998,1506.0001 H 368 l 0,-240 h -12.00002 z" id="path6" sodipodi:nodetypes="ccccc"/><path style="fill:#000000;stroke-width:0.1;stroke-linecap:square" d="m 366,1278.0001 878,0 v -12 l -878,0 z" id="path7" sodipodi:nodetypes="ccccc"/><path style="fill:#000000;stroke-width:0.1;stroke-linecap:square" d="m 1232,1276.0001 h 12 v 164 h -12 z" id="path8" sodipodi:nodetypes="ccccc"/><path style="fill:#000000;stroke-width:0.1;stroke-linecap:square" d="m 1232,1448.0001 v -10 h 196 v 10 z" id="path20" sodipodi:nodetypes="ccccc"/><path style="fill:#000000;stroke-width:0.1;stroke-linecap:square" d="m 1244,1316.0001 v -12 h 246 v 12 z" id="path26" sodipodi:nodetypes="ccccc"/><path style="fill:#000000;stroke-width:0.1;stroke-linecap:square" d="m 1676,1316.0001 v -12 l 188,0 v 12 z" id="path29" sodipodi:nodetypes="ccccc"/><path style="fill:#000000;stroke-width:0.1;stroke-linecap:square" d="m 1894,1316.0001 v -12 l 466,0 v 12 z" id="path31" sodipodi:nodetypes="ccccc"/><path style="fill:#000000;stroke-width:0.1;stroke-linecap:square" d="m 2386,1316.0001 v -12 h 18 v 12 z" id="path32" sodipodi:nodetypes="ccccc"/><path style="fill:#000000;stroke-width:0.1;stroke-linecap:square" d="m 2432,1316.0001 v -12 h 212 v 12 z" id="path33" sodipodi:nodetypes="ccccc"/><path style="fill:#000000;stroke-width:0.1;stroke-linecap:square" d="m 1394,1508.0001 v 12 h 266 v -12 z" id="path34" sodipodi:nodetypes="ccccc"/><path style="fill:#000000;stroke-width:0.1;stroke-linecap:square" d="m 1406,1304.0001 h 12 v -172 h -12 z" id="path43"/><path style="fill:#000000;stroke-width:0.1;stroke-linecap:square" d="m 1418,1144 v -12 l 1226,10e-5 v 12 z" id="path48" sodipodi:nodetypes="ccccc"/><path style="fill:#000000;stroke-width:0.1;stroke-linecap:square" d="m 2644,1132.0001 h 12 v 306 h -12 z" id="path49" sodipodi:nodetypes="ccccc"/><path style="fill:#000000;stroke-width:0.1;stroke-linecap:square" d="m 2656,1438.0001 v 12 h -984 v -12 z" id="path51"/><path style="fill:#000000;stroke-width:0.1;stroke-linecap:square" d="m 1348,1518.0001 0,76 h 8 l 0,-76 z" id="path52" sodipodi:nodetypes="ccccc"/><path style="fill:#000000;stroke-width:0.1;stroke-linecap:square" d="m 1356,1586.0001 h 46 v 8 h -46 z" id="path53"/><path style="fill:#000000;stroke-width:0.1;stroke-linecap:square" d="m 1414,1594.0001 h -12 v -60 8 -22 l 12,-2 z" id="path55" sodipodi:nodetypes="ccccccc"/><path style="fill:#000000;stroke-width:0.1;stroke-linecap:square" d="m 1590,1508.0001 h 12 l 0,-144 h -12 z" id="path56" sodipodi:nodetypes="ccccc"/><path style="fill:#000000;stroke-width:0.1;stroke-linecap:square" d="m 1672,1438.0001 h -12 v 82 h 12 z" id="path57" sodipodi:nodetypes="ccccc"/><path style="fill:#000000;stroke-width:0.1;stroke-linecap:square" d="m 1528,1144 v 160 l 6,-10e-5 v -160 z" id="path77" sodipodi:nodetypes="ccccc"/><path style="fill:#000000;stroke-width:0.1;stroke-linecap:square" d="m 2150,1304.0001 h 6 v -160 h -6 z" id="path79"/><path style="fill:#000000;stroke-width:0.1;stroke-linecap:square" d="m 2334,1438.0001 v -74 h 4 v 74 z" id="path81" sodipodi:nodetypes="ccccc"/><path style="fill:#000000;stroke-width:0.1;stroke-linecap:square" d="m 2022,1438.0001 v -4 h 6 v 4 z" id="path84"/><path style="fill:#000000;stroke-width:0.1;stroke-linecap:square" d="m 2334,1370.0001 v -6 l -622,0 0,6 z" id="path87" sodipodi:nodetypes="ccccc"/><path style="fill:#000000;stroke-width:0.1;stroke-linecap:square" d="m 1712,1370.0001 0,68 h 6 l 0,-68 z" id="path90" sodipodi:nodetypes="ccccc"/><path style="fill:#000000;fill-opacity:1;stroke-width:1;stroke-linecap:square" d="m 1468,1374.0001 h -168 v 6 h 168 z" id="path121" sodipodi:nodetypes="ccccc"/><path style="fill:#000000;fill-opacity:1;stroke-width:1;stroke-linecap:square" d="m 1352,1380.0002 v 58 h -2 v -58 z" id="path127"/><path style="fill:#000000;fill-opacity:1;stroke-width:1;stroke-linecap:square" d="m 1342,1380.0002 v 58 h -2 v -58 z" id="path128"/><path style="fill:#000000;fill-opacity:1;stroke-width:1;stroke-linecap:square" d="m 1332,1380.0003 v 58 h -2 v -58 z" id="path129"/><path style="fill:#000000;fill-opacity:1;stroke-width:1;stroke-linecap:square" d="m 1322,1380.0001 v 58 h -2 v -58 z" id="path130"/><path style="fill:#000000;fill-opacity:1;stroke-width:1;stroke-linecap:square" d="m 1312,1380.0001 v 58 h -2 v -58 z" id="path131"/><path style="fill:#000000;fill-opacity:1;stroke-width:1;stroke-linecap:square" d="m 1302,1380.0001 v 58 h -2 v -58 z" id="path132"/><path style="fill:#000000;fill-opacity:1;stroke-width:1;stroke-linecap:square" d="m 1410,1316.0001 v 58 h -2 v -58 z" id="path133"/><path style="fill:#000000;fill-opacity:1;stroke-width:1;stroke-linecap:square" d="m 1400,1316.0002 v 58 h -2 v -58 z" id="path134"/><path style="fill:#000000;fill-opacity:1;stroke-width:1;stroke-linecap:square" d="m 1390,1316.0002 v 58 h -2 v -58 z" id="path135"/><path style="fill:#000000;fill-opacity:1;stroke-width:1;stroke-linecap:square" d="m 1380,1316.0003 v 58 h -2 v -58 z" id="path136"/><path style="fill:#000000;fill-opacity:1;stroke-width:1;stroke-linecap:square" d="m 1370,1316.0002 v 58 h -2 v -58 z" id="path137"/><path style="fill:#000000;fill-opacity:1;stroke-width:1;stroke-linecap:square" d="m 1360,1316.0003 v 58 h -2 v -58 z" id="path138"/><path style="fill:#000000;fill-opacity:1;stroke-width:1;stroke-linecap:square" d="m 1350,1316.0003 v 58 h -2 v -58 z" id="path139"/><path style="fill:#000000;fill-opacity:1;stroke-width:1;stroke-linecap:square" d="m 1340,1316.0004 v 58 h -2 v -58 z" id="path140"/><path style="fill:#000000;fill-opacity:1;stroke-width:1;stroke-linecap:square" d="m 1330,1316.0002 v 58 h -2 v -58 z" id="path141"/><path style="fill:#000000;fill-opacity:1;stroke-width:1;stroke-linecap:square" d="m 1320,1316.0002 v 58 h -2 v -58 z" id="path142"/><path style="fill:#000000;fill-opacity:1;stroke-width:1;stroke-linecap:square" d="m 1310,1316.0002 v 58 h -2 v -58 z" id="path143"/><path style="fill:#000000;fill-opacity:1;stroke-width:1;stroke-linecap:square" d="m 2586,1374.0001 h -120 v 6 h 120 z" id="path144" sodipodi:nodetypes="ccccc"/><path style="fill:#000000;fill-opacity:1;stroke-width:1;stroke-linecap:square" d="m 2546,1380.0001 v 58 h -2 v -58 z" id="path152"/><path style="fill:#000000;fill-opacity:1;stroke-width:1;stroke-linecap:square" d="m 2556,1380.0001 v 58 h -2 v -58 z" id="path153"/><path style="fill:#000000;fill-opacity:1;stroke-width:1;stroke-linecap:square" d="m 2566,1380.0001 v 58 h -2 v -58 z" id="path154"/><path style="fill:#000000;fill-opacity:1;stroke-width:1;stroke-linecap:square" d="m 2576,1380.0001 v 58 h -2 v -58 z" id="path155"/><path style="fill:#000000;fill-opacity:1;stroke-width:1;stroke-linecap:square" d="m 2586,1380.0001 v 58 h -2 v -58 z" id="path156"/><path style="fill:#000000;fill-opacity:1;stroke-width:1;stroke-linecap:square" d="m 2478,1316.0001 v 58 h -2 v -58 z" id="path160"/><path style="fill:#000000;fill-opacity:1;stroke-width:1;stroke-linecap:square" d="m 2488,1316.0001 v 58 h -2 v -58 z" id="path161"/><path style="fill:#000000;fill-opacity:1;stroke-width:1;stroke-linecap:square" d="m 2498,1316.0001 v 58 h -2 v -58 z" id="path162"/><path style="fill:#000000;fill-opacity:1;stroke-width:1;stroke-linecap:square" d="m 2508,1316.0001 v 58 h -2 v -58 z" id="path163"/><path style="fill:#000000;fill-opacity:1;stroke-width:1;stroke-linecap:square" d="m 2518,1316.0001 v 58 h -2 v -58 z" id="path164"/><path style="fill:#000000;fill-opacity:1;stroke-width:1;stroke-linecap:square" d="m 2528,1316.0001 v 58 h -2 v -58 z" id="path165"/><path style="fill:#000000;fill-opacity:1;stroke-width:1;stroke-linecap:square" d="m 2538,1316.0001 v 58 h -2 v -58 z" id="path166"/><path style="fill:#000000;fill-opacity:1;stroke-width:1;stroke-linecap:square" d="m 2548,1316.0001 v 58 h -2 v -58 z" id="path167"/><path style="fill:#000000;fill-opacity:1;stroke-width:1;stroke-linecap:square" d="m 2558,1316.0001 v 58 h -2 v -58 z" id="path168"/><path style="fill:#000000;fill-opacity:1;stroke-width:1;stroke-linecap:square" d="m 2568,1316.0001 v 58 h -2 v -58 z" id="path169"/><path style="fill:#000000;fill-opacity:1;stroke-width:1;stroke-linecap:square" d="m 2578,1316.0001 v 58 h -2 v -58 z" id="path170"/><path style="fill:#000000;fill-opacity:1;stroke-width:1;stroke-linecap:square" d="m 2468,1316.0001 v 58 h -2 v -58 z" id="path171"/><path style="fill:#000000;fill-opacity:1;stroke-width:1;stroke-linecap:square" d="m 1602,1506.0001 h 58 v -2 h -58 z" id="path187"/><path style="fill:#000000;fill-opacity:1;stroke-width:1;stroke-linecap:square" d="m 1602,1496.0001 h 58 v -2 h -58 z" id="path188"/><path style="fill:#000000;fill-opacity:1;stroke-width:1;stroke-linecap:square" d="m 1602,1486.0001 h 58 v -2 h -58 z" id="path189"/><path style="fill:#000000;fill-opacity:1;stroke-width:1;stroke-linecap:square" d="m 1602,1476.0001 h 58 v -2 h -58 z" id="path190"/><path style="fill:#000000;fill-opacity:1;stroke-width:1;stroke-linecap:square" d="m 1602,1466.0001 h 58 v -2 h -58 z" id="path191"/><path style="fill:#000000;fill-opacity:1;stroke-width:1;stroke-linecap:square" d="m 1602,1456.0001 h 58 v -2 h -58 z" id="path192"/><path style="fill:#000000;stroke-width:1;stroke-linecap:square" d="m 1368,1526.0001 -8,-10e-5 v 52 l 8,10e-5 v -2 h -6 V 1528 l 6,10e-5 z" id="path230" sodipodi:nodetypes="ccccccccc"/><path style="fill:#000000;stroke-width:1;stroke-linecap:square" d="m 1390,1526.0001 8,-10e-5 v 52 l -8,10e-5 v -2 h 6 V 1528 l -6,10e-5 z" id="path231" sodipodi:nodetypes="ccccccccc"/><path style="fill:#000000;stroke-width:1;stroke-linecap:square" d="m 1358,1440.0001 0,-62 h 70 l 0,62 z" id="path9" sodipodi:nodetypes="ccccc"/><path style="fill:#000000;stroke:none;stroke-width:1;stroke-linecap:square;stroke-opacity:1" d="m 1716,1368.0001 h 620 v 72 h -620 z" id="path10" sodipodi:nodetypes="ccccc"/><path style="fill:#000000;fill-opacity:1;stroke-width:1;stroke-linecap:square" d="m 1602,1446.0001 h 58 v -2 h -58 z" id="path11"/><path style="fill:#000000;stroke-width:1;stroke-linecap:square" d="m 1368,1578 v -1.9999 h 22 V 1578 Z" id="path12"/><path style="fill:#000000;stroke-width:1;stroke-linecap:square" d="m 1356,1508 h -6 v -60 h 6 z" id="path13"/><path style="fill:#000000;stroke:none;stroke-width:1;stroke-linecap:square;stroke-opacity:1" d="m 366,1274.0001 868,2 v 170 h 118 v 64 l -986,0 z" id="path14" sodipodi:nodetypes="ccccccc"/><path style="fill:#000000;stroke-width:0.1;stroke-linecap:square" d="m 1774,1144.0001 0,162 h 6 L 1780,1144 Z" id="path15" sodipodi:nodetypes="ccccc"/><path style="fill:#000000;stroke-width:0.1;stroke-linecap:square" d="m 2394,1304 h 6 v -160 h -6 z" id="path16"/><path style="fill:#000000;stroke-width:0.1;stroke-linecap:square" d="m 2394,1378.0001 h 6 v -62 h -6 z" id="path17" sodipodi:nodetypes="ccccc"/><path style="fill:#000000;stroke-width:0.1;stroke-linecap:square" d="m 2394,1438.0001 h 6 v -10 h -6 z" id="path18" sodipodi:nodetypes="ccccc"/><path style="fill:#000000;stroke-width:1;stroke-linecap:square" d="m 2466,1378.0001 h 70 l 0,62 h -70 z" id="path19" sodipodi:nodetypes="ccccc"/><path style="fill:#000000;stroke-width:0.1;stroke-linecap:square" d="m 2460,1252.0001 h 6 l 0,-108 h -6 z" id="path22" sodipodi:nodetypes="ccccc"/><path style="fill:#000000;stroke-width:1;stroke-linecap:square" d="m 2398,1234.0001 64,0 v -92 L 2398,1142 Z" id="path23" sodipodi:nodetypes="ccccc"/><path style="fill:#000000;stroke-width:0.1;stroke-linecap:square" d="m 2460,1304.0001 h 6 l 0,-30 h -6 z" id="path24" sodipodi:nodetypes="ccccc"/><path style="fill:#000000;stroke-width:0.1;stroke-linecap:square" d="m 1516,1316.0001 v -12 h 133 v 12 z" id="path36" sodipodi:nodetypes="ccccc"/><path style="fill:#000000;stroke-width:0.1;stroke-linecap:square" d="m 1590,1332.0001 h 12 l 0,-16 h -12 z" id="path37" sodipodi:nodetypes="ccccc"/><path style="fill:#000000;fill-opacity:1;stroke-width:1;stroke-linecap:square" d="m 1590,1374.0001 h -80 v 6 h 80 z" id="path38" sodipodi:nodetypes="ccccc"/><path style="fill:#000000;stroke-width:0.1;stroke-linecap:square" d="m 1906,1252 h 6 v -108 h -6 z" id="path1" sodipodi:nodetypes="ccccc"/><path style="fill:#000000;stroke-width:0.1;stroke-linecap:square" d="m 1906,1304 h 6 v -30 h -6 z" id="path2" sodipodi:nodetypes="ccccc"/><path style="fill:#000000;stroke-width:1;stroke-linecap:square" d="m 1778,1306.0001 h 76 l 0,-72 h 54 L 1908,1142 h -130 z" id="path3" sodipodi:nodetypes="ccccccc"/></g><g inkscape:groupmode="layer" id="layer5" inkscape:label="interactive"><path style="fill:#ffffff;fill-opacity:1;stroke-width:4.99999;stroke-linecap:square;paint-order:fill markers stroke" d="m 1418,1304 v -160 h 110 v 160 z" id="r1" inkscape:label="r1"/><path style="fill:#ffffff;fill-opacity:1;stroke-width:4.99999;stroke-linecap:square;paint-order:fill markers stroke" d="m 1534,1144 h 240 v 160 h -240 z" id="r2" inkscape:label="r2"/><path style="fill:#ffffff;fill-opacity:1;stroke-width:4.99999;stroke-linecap:square;paint-order:fill markers stroke" d="m 1428,1380 h 161.9999 v 128 H 1356 v -60 h 72 z" id="r3" inkscape:label="r3"/><path style="fill:#ffffff;fill-opacity:1;stroke-width:4.99999;stroke-linecap:square;paint-order:fill markers stroke" d="m 1912,1304 v -160 h 237.9999 v 160 z" id="r4" inkscape:label="r4"/><path style="fill:#ffffff;fill-opacity:1;stroke-width:4.99999;stroke-linecap:square;paint-order:fill markers stroke" d="m 2155.9999,1304 v -160 h 238 v 160 z" id="r5" inkscape:label="r5"/><path style="fill:#ffffff;fill-opacity:1;stroke-width:4.99999;stroke-linecap:square;paint-order:fill markers stroke" d="m 2465.9999,1144 h 178 v 160 h -178 z" id="r6" inkscape:label="r6"/></g></svg>
